<svg width="40" height="40" viewBox="0 0 40 40" fill="none" xmlns="http://www.w3.org/2000/svg">
<g clip-path="url(#clip0_363_789)">
<path d="M3.96289 9.20093H5.28633V23.9798H3.96289V9.20093Z" fill="#616484"/>
<path d="M34.7139 9.20093H36.0373V23.9798H34.7139V9.20093Z" fill="#424566"/>
<path d="M36.8297 9.20083H3.17031C2.50703 9.20083 1.96875 8.66333 1.96875 7.99927V1.20864C1.96875 0.545361 2.50625 0.00708008 3.17031 0.00708008H36.8297C37.493 0.00708008 38.0312 0.54458 38.0312 1.20864V7.99927C38.0312 8.66333 37.493 9.20083 36.8297 9.20083Z" fill="#E6EAFF"/>
<path d="M36.8297 0.0078125H20V9.20078H36.8297C37.493 9.20078 38.0305 8.66328 38.0305 8V1.20938C38.0305 0.545312 37.493 0.0078125 36.8297 0.0078125Z" fill="#CAD4FF"/>
<path d="M16.4844 2.77197V4.21416H17.7555C18.0359 4.21416 18.2633 4.4415 18.2633 4.72197C18.2633 5.00244 18.0359 5.22979 17.7555 5.22979H16.4844V6.67197H18.7898C19.0703 6.67197 19.2977 6.89932 19.2977 7.17978C19.2977 7.46025 19.0703 7.6876 18.7898 7.6876H15.9766C15.6961 7.6876 15.4688 7.46025 15.4688 7.17978V2.26416C15.4688 1.98369 15.6961 1.75635 15.9766 1.75635H18.7898C19.0703 1.75635 19.2977 1.98369 19.2977 2.26416C19.2977 2.54463 19.0703 2.77197 18.7898 2.77197H16.4844Z" fill="#616484"/>
<path d="M24.4826 1.75635C24.2021 1.75635 23.9748 1.98369 23.9748 2.26416V5.29854L22.1686 2.19541C22.0529 1.99697 21.8186 1.90088 21.5975 1.96104C21.3764 2.02119 21.2217 2.22197 21.2217 2.45166V7.17978C21.2217 7.46025 21.449 7.6876 21.7295 7.6876C22.01 7.6876 22.2373 7.46025 22.2373 7.17978V4.33213L24.0443 7.43525C24.1373 7.59463 24.3061 7.6876 24.4834 7.6876C24.5271 7.6876 24.5717 7.68213 24.6154 7.66963C24.8373 7.60947 24.9912 7.40869 24.9912 7.179V2.26416C24.9904 1.98369 24.7631 1.75635 24.4826 1.75635Z" fill="#424566"/>
<path d="M11.6525 5.23027H11.8088C12.7658 5.23027 13.5447 4.45059 13.5447 3.49355C13.5447 2.53574 12.7658 1.75684 11.8088 1.75684H9.6416C9.36113 1.75684 9.13379 1.98418 9.13379 2.26465V7.18027C9.13379 7.46074 9.36113 7.68809 9.6416 7.68809C9.92207 7.68809 10.1494 7.46074 10.1494 7.18027V5.23027H10.2604L12.39 7.50215C12.4893 7.60918 12.6252 7.66309 12.7604 7.66309C12.8846 7.66309 13.0096 7.61777 13.1072 7.52559C13.3119 7.33418 13.3229 7.0123 13.1307 6.80762L11.6525 5.23027ZM10.1494 4.21465V2.77246H11.8088C12.2057 2.77246 12.5291 3.0959 12.5291 3.49355C12.5291 3.89121 12.2057 4.21465 11.8088 4.21465H10.1494Z" fill="#616484"/>
<path d="M30.3576 1.75635H27.4209C27.1404 1.75635 26.9131 1.98369 26.9131 2.26416C26.9131 2.54463 27.1404 2.77197 27.4209 2.77197H28.3818V7.17978C28.3818 7.46025 28.6092 7.6876 28.8896 7.6876C29.1701 7.6876 29.3975 7.46025 29.3975 7.17978V2.77197H30.3584C30.6389 2.77197 30.8662 2.54463 30.8662 2.26416C30.8662 1.98369 30.6381 1.75635 30.3576 1.75635Z" fill="#424566"/>
<path d="M37.8455 39.9922H35.4104C34.8174 39.9922 34.3369 39.5117 34.3369 38.9187V31.382C34.3369 30.7891 34.8174 30.3086 35.4104 30.3086H37.8455C38.4385 30.3086 38.9189 30.7891 38.9189 31.382V38.9187C38.9189 39.5117 38.4385 39.9922 37.8455 39.9922Z" fill="#333756"/>
<path d="M4.58984 39.9922H2.15547C1.5625 39.9922 1.08203 39.5117 1.08203 38.9187V31.382C1.08203 30.7891 1.5625 30.3086 2.15547 30.3086H4.59063C5.18359 30.3086 5.66406 30.7891 5.66406 31.382V38.9187C5.66406 39.5117 5.18281 39.9922 4.58984 39.9922Z" fill="#424566"/>
<path d="M1.21611 31.6078C1.2833 31.8992 1.55986 34.3055 1.75361 35.7602C1.82861 36.3211 2.30674 36.7398 2.87315 36.7398H37.1263C37.6927 36.7398 38.1708 36.3211 38.2458 35.7602C38.4396 34.3055 38.7161 31.9 38.7833 31.6078C38.9942 30.6875 39.3325 29.7961 39.4403 28.8539C39.5763 27.6602 39.4271 26.4477 38.9731 25.3336C38.2263 23.5008 36.9255 21.9539 36.1864 20.1164C35.4146 18.1961 34.5239 16.3266 33.6872 14.4344C32.5153 11.7844 29.8927 10.0742 26.995 10.0742H13.0044C10.1067 10.0742 7.48486 11.7852 6.31221 14.4344C5.47549 16.3266 4.58486 18.1953 3.81299 20.1164C3.07471 21.9547 1.77393 23.5008 1.02627 25.3336C0.572364 26.4477 0.423146 27.6609 0.559083 28.8539C0.666896 29.7969 1.00518 30.6875 1.21611 31.6078Z" fill="#47B5FF"/>
<path d="M38.9742 25.3336C38.2266 23.5008 36.9258 21.9547 36.1875 20.1164C35.4156 18.1961 34.525 16.3266 33.6883 14.4344C32.5156 11.7852 29.8937 10.0742 26.9961 10.0742H20V36.7398H37.1273C37.6938 36.7398 38.1719 36.3219 38.2469 35.7602C38.4406 34.3055 38.7172 31.9 38.7844 31.6086C38.9953 30.6883 39.3336 29.7969 39.4414 28.8547C39.5773 27.6609 39.4281 26.4477 38.9742 25.3336Z" fill="#2192FF"/>
<path d="M33.4557 16.6539C33.1939 16.0765 32.9229 15.4804 32.6611 14.8882C31.6682 12.646 29.4455 11.196 26.9963 11.196H13.0049C10.5549 11.196 8.33145 12.6453 7.33848 14.8882C7.07676 15.4796 6.80723 16.0765 6.54551 16.6531C6.04941 17.7492 5.53926 18.8765 5.07129 20.0039C9.80332 20.4117 14.8143 20.6296 20.0002 20.6296C25.1861 20.6296 30.1971 20.4117 34.9283 20.0039C34.4619 18.8773 33.9525 17.75 33.4557 16.6539Z" fill="#616484"/>
<path d="M33.4563 16.6546C33.1938 16.0773 32.9234 15.4812 32.6617 14.8882C31.6688 12.6468 29.4453 11.196 26.9969 11.196H20V20.6296H20.0008C25.1875 20.6296 30.1977 20.4117 34.9289 20.0039C34.4625 18.8781 33.9523 17.7507 33.4563 16.6546Z" fill="#424566"/>
<path d="M31.4917 31.0668L32.5159 29.0387C32.8652 28.3465 33.3808 27.7473 34.0292 27.323C34.7605 26.8449 35.8323 26.3527 37.1941 26.2949C37.1941 26.2949 37.9183 26.3527 37.9183 27.5699V28.9059C37.9183 29.3332 37.6761 29.7238 37.2917 29.9113C36.4699 30.3121 34.7433 30.9262 31.5683 31.1785C31.5081 31.184 31.4644 31.1207 31.4917 31.0668Z" fill="#CAD4FF"/>
<path d="M36.0863 27.2695C35.402 27.2695 34.8457 27.8242 34.8457 28.5102C34.8457 29.1961 35.402 29.7508 36.0863 29.7508C36.7723 29.7508 37.327 29.1961 37.327 28.5102C37.327 27.8242 36.7723 27.2695 36.0863 27.2695ZM36.0863 29.3867C35.6027 29.3867 35.2098 28.9938 35.2098 28.5102C35.2098 28.0266 35.6027 27.6336 36.0863 27.6336C36.5699 27.6336 36.9629 28.0266 36.9629 28.5102C36.9629 28.9938 36.5699 29.3867 36.0863 29.3867Z" fill="#E6EAFF"/>
<path d="M36.0871 27.8857C35.7426 27.8857 35.4629 28.1654 35.4629 28.51C35.4629 28.8545 35.7426 29.1342 36.0871 29.1342C36.4316 29.1342 36.7113 28.8545 36.7113 28.51C36.7113 28.1654 36.4316 27.8857 36.0871 27.8857ZM36.0871 28.7365C35.9621 28.7365 35.8613 28.635 35.8613 28.51C35.8613 28.385 35.9621 28.2842 36.0871 28.2842C36.2121 28.2842 36.3129 28.385 36.3129 28.51C36.3129 28.635 36.2121 28.7365 36.0871 28.7365Z" fill="#E6EAFF"/>
<path d="M33.6727 29.0923C33.282 29.0923 32.9648 29.4087 32.9648 29.8001C32.9648 30.1915 33.282 30.5079 33.6727 30.5079C34.0641 30.5079 34.3805 30.1915 34.3805 29.8001C34.3805 29.4087 34.0641 29.0923 33.6727 29.0923ZM33.6727 30.3001C33.3969 30.3001 33.1727 30.0759 33.1727 29.8001C33.1727 29.5243 33.3969 29.3001 33.6727 29.3001C33.9484 29.3001 34.1727 29.5243 34.1727 29.8001C34.1727 30.0759 33.9484 30.3001 33.6727 30.3001Z" fill="#E6EAFF"/>
<path d="M33.6738 29.5312C33.5254 29.5312 33.4043 29.6516 33.4043 29.8C33.4043 29.9484 33.5254 30.0688 33.6738 30.0688C33.8223 30.0688 33.9426 29.9484 33.9426 29.8C33.9426 29.6516 33.8223 29.5312 33.6738 29.5312ZM33.6738 29.8977C33.6199 29.8977 33.5762 29.8539 33.5762 29.8C33.5762 29.7461 33.6199 29.7023 33.6738 29.7023C33.727 29.7023 33.7707 29.7461 33.7707 29.8C33.7707 29.8539 33.727 29.8977 33.6738 29.8977Z" fill="#E6EAFF"/>
<path d="M37.1941 26.2944C35.8324 26.3515 34.7597 26.8444 34.0292 27.3233C33.3792 27.7476 32.8644 28.3468 32.5152 29.0382L31.4917 31.0671C31.4644 31.121 31.5081 31.1843 31.5675 31.1796C31.605 31.1772 31.6425 31.1733 31.68 31.1694L32.6753 29.1991C33.0245 28.5069 33.5394 27.9069 34.1894 27.4835C34.8956 27.0202 35.9222 26.5444 37.2206 26.4616C37.3738 26.4515 37.5292 26.4921 37.6527 26.5835C37.6542 26.5851 37.6558 26.5858 37.6574 26.5874C37.4495 26.3147 37.1941 26.2944 37.1941 26.2944Z" fill="#FFC738"/>
<path d="M8.50859 31.0668L7.48438 29.0387C7.13516 28.3465 6.61953 27.7473 5.97109 27.323C5.23984 26.8449 4.16797 26.3527 2.80625 26.2949C2.80625 26.2949 2.08203 26.3527 2.08203 27.5699V28.9059C2.08203 29.3332 2.32422 29.7238 2.70859 29.9113C3.53047 30.3121 5.25703 30.9262 8.43203 31.1785C8.49297 31.184 8.53594 31.1207 8.50859 31.0668Z" fill="#E6EAFF"/>
<path d="M2.67383 28.5102C2.67383 29.1961 3.22852 29.7508 3.91445 29.7508C4.59883 29.7508 5.15508 29.1961 5.15508 28.5102C5.15508 27.8242 4.59883 27.2695 3.91445 27.2695C3.22852 27.2695 2.67383 27.8242 2.67383 28.5102ZM3.03789 28.5102C3.03789 28.0266 3.43086 27.6336 3.91445 27.6336C4.39805 27.6336 4.79102 28.0266 4.79102 28.5102C4.79102 28.9938 4.39805 29.3867 3.91445 29.3867C3.43086 29.3867 3.03789 28.9938 3.03789 28.5102Z" fill="white"/>
<path d="M3.91426 27.8857C3.56973 27.8857 3.29004 28.1654 3.29004 28.51C3.29004 28.8545 3.56973 29.1342 3.91426 29.1342C4.25879 29.1342 4.53848 28.8545 4.53848 28.51C4.53848 28.1654 4.25879 27.8857 3.91426 27.8857ZM3.91426 28.7365C3.78926 28.7365 3.68848 28.635 3.68848 28.51C3.68848 28.385 3.78926 28.2842 3.91426 28.2842C4.03926 28.2842 4.14004 28.385 4.14004 28.51C4.14004 28.635 4.03926 28.7365 3.91426 28.7365Z" fill="white"/>
<path d="M5.62012 29.8001C5.62012 30.1915 5.93652 30.5079 6.32793 30.5079C6.71855 30.5079 7.03574 30.1915 7.03574 29.8001C7.03574 29.4087 6.71855 29.0923 6.32793 29.0923C5.93652 29.0923 5.62012 29.4087 5.62012 29.8001ZM5.82793 29.8001C5.82793 29.5243 6.05215 29.3001 6.32793 29.3001C6.60371 29.3001 6.82793 29.5243 6.82793 29.8001C6.82793 30.0759 6.60371 30.3001 6.32793 30.3001C6.05215 30.3001 5.82793 30.0759 5.82793 29.8001Z" fill="white"/>
<path d="M6.32734 29.5312C6.17969 29.5312 6.05859 29.6516 6.05859 29.8C6.05859 29.9484 6.17969 30.0688 6.32734 30.0688C6.47578 30.0688 6.59687 29.9484 6.59687 29.8C6.59687 29.6516 6.47578 29.5312 6.32734 29.5312ZM6.32734 29.8977C6.27422 29.8977 6.23047 29.8539 6.23047 29.8C6.23047 29.7461 6.27422 29.7023 6.32734 29.7023C6.38125 29.7023 6.425 29.7461 6.425 29.8C6.425 29.8539 6.38125 29.8977 6.32734 29.8977Z" fill="white"/>
<path d="M2.80605 26.2944C4.16777 26.3515 5.24043 26.8444 5.9709 27.3233C6.6209 27.7476 7.13574 28.3468 7.48496 29.0382L8.5084 31.0671C8.53574 31.121 8.49199 31.1843 8.43262 31.1796C8.39512 31.1772 8.35762 31.1733 8.32012 31.1694L7.32481 29.1991C6.97559 28.5069 6.46074 27.9069 5.81074 27.4835C5.10449 27.0202 4.07793 26.5444 2.77949 26.4616C2.62637 26.4515 2.4709 26.4921 2.34746 26.5835C2.3459 26.5851 2.34434 26.5858 2.34277 26.5874C2.55059 26.3147 2.80605 26.2944 2.80605 26.2944Z" fill="#FFF259"/>
<path d="M30.1328 33.3048C30.057 33.3158 30.0109 33.397 30.0421 33.4665C30.4632 34.4072 31.2562 35.479 32.3734 35.479C32.9812 35.479 34.8953 35.2986 35.5007 35.2353C35.982 35.1853 36.6788 35.1525 37.0788 34.8447C37.2929 34.6798 37.3203 34.3783 37.3257 34.129C37.3367 33.6181 37.3882 32.8572 36.9093 32.5118C36.6546 32.3283 36.3867 32.4173 36.1023 32.4587C34.5468 32.6853 31.6867 33.0759 30.1328 33.3048Z" fill="#0085F2"/>
<path d="M31.9462 33.2697C31.8806 33.279 31.8408 33.3494 31.8681 33.4095C32.2322 34.2236 32.9189 35.1509 33.8853 35.1509C34.4119 35.1509 34.9392 35.1447 35.4626 35.0892C35.879 35.0455 36.4822 35.0173 36.8283 34.7509C37.0134 34.6087 37.0369 34.3478 37.0415 34.1314C37.0509 33.6892 37.0955 33.0306 36.6814 32.7322C36.4611 32.5736 36.229 32.6501 35.983 32.6861C34.6376 32.8822 33.2915 33.0705 31.9462 33.2697Z" fill="#424566"/>
<path d="M9.86799 33.3048C9.94377 33.3158 9.98986 33.397 9.95861 33.4665C9.53752 34.4072 8.74455 35.479 7.62736 35.479C7.01955 35.479 5.10549 35.2986 4.50002 35.2353C4.01877 35.1853 3.32189 35.1525 2.92189 34.8447C2.70783 34.6798 2.68049 34.3783 2.67502 34.129C2.66408 33.6181 2.61252 32.8572 3.09142 32.5118C3.34611 32.3283 3.61408 32.4173 3.89845 32.4587C5.45314 32.6853 8.3133 33.0759 9.86799 33.3048Z" fill="#2192FF"/>
<path d="M8.0535 33.2697C8.11913 33.279 8.15897 33.3494 8.13163 33.4095C7.76757 34.2236 7.08085 35.1509 6.11444 35.1509C5.58788 35.1509 5.06054 35.1447 4.5371 35.0892C4.12069 35.0455 3.51757 35.0173 3.17147 34.7509C2.98632 34.6087 2.96288 34.3478 2.95819 34.1314C2.94882 33.6892 2.90429 33.0306 3.31835 32.7322C3.53866 32.5736 3.77069 32.6501 4.01679 32.6861C5.3621 32.8822 6.70897 33.0705 8.0535 33.2697Z" fill="#616484"/>
<path d="M39.5332 17.5907C39.2777 17.4063 38.9645 17.3188 38.6488 17.3188H37.7176C37.4098 17.3188 37.1777 17.4149 37.0027 17.5446C36.7059 17.7657 36.5449 18.1259 36.5449 18.4962V19.2665H39.7371C39.984 18.886 39.9988 18.4649 39.9988 18.4649C39.9996 18.0423 39.7754 17.7649 39.5332 17.5907Z" fill="#2192FF"/>
<path d="M35.8359 19.2679C35.9211 19.4663 36.0031 19.6655 36.0852 19.8655H38.5344C39.1742 19.8655 39.5344 19.5804 39.7375 19.2671H35.9531L35.8359 19.2679Z" fill="#424566"/>
<path d="M3.45547 18.4962C3.45547 18.1259 3.29453 17.7657 2.99688 17.5446C2.82344 17.4149 2.59063 17.3188 2.28203 17.3188H1.35156C1.03594 17.3188 0.723437 17.4063 0.467187 17.5907C0.224219 17.7649 0 18.0423 0 18.4649C0 18.4649 0.0148437 18.8829 0.259375 19.2618H3.45547V18.4962Z" fill="#47B5FF"/>
<path d="M3.45586 19.2617H0.259766C0.462109 19.5766 0.823047 19.8656 1.46602 19.8656H3.91445C3.9957 19.6664 4.0793 19.4664 4.16289 19.268L3.45586 19.2617Z" fill="#616484"/>
<path d="M38.1617 36.0647C37.9844 36.4663 37.5844 36.7397 37.1266 36.7397H2.87344C2.41562 36.7397 2.01562 36.4663 1.83984 36.0647H9.90391C10.6758 36.0647 11.3867 35.6437 11.7555 34.9647L12.0922 34.3483C12.5414 33.5226 13.4062 33.0093 14.3469 33.0093H25.675C26.6156 33.0093 27.4805 33.5233 27.9297 34.3483L28.2664 34.9647C28.6352 35.6429 29.3461 36.0647 30.118 36.0647H38.1617Z" fill="#616484"/>
<path d="M30.118 36.0649C29.3461 36.0649 28.6352 35.6438 28.2656 34.9657L27.9297 34.3493C27.4805 33.5235 26.6148 33.0103 25.675 33.0103H20V36.7399H37.1273C37.5852 36.7399 37.9852 36.4665 38.1625 36.0649H30.118Z" fill="#424566"/>
<path d="M34.923 19.9897L34.3793 20.0483L34.3254 20.0546H34.309C29.7598 20.4296 24.9605 20.6296 19.9996 20.6296C15.0387 20.6296 10.2379 20.4304 5.68867 20.0546H5.67227L5.61836 20.0483L5.07461 19.9897L3.91211 19.8647C3.91211 19.8647 6.12305 27.1757 10.348 27.1757H29.6488C33.8738 27.1757 36.0832 19.8647 36.0832 19.8647L34.923 19.9897Z" fill="#5CC5FF"/>
<path d="M34.9234 19.9895L34.3797 20.048L34.3266 20.0543H34.3102C29.7609 20.4301 24.9617 20.6293 20.0008 20.6293H20V27.1762H29.6516C33.8492 27.1762 36.057 19.9605 36.0859 19.866C36.0859 19.8652 36.0859 19.8652 36.0859 19.8652L34.9234 19.9895Z" fill="#47B5FF"/>
<path d="M30.8223 26.9829C30.4504 27.1079 30.0605 27.1759 29.6512 27.1759H10.3504C9.94023 27.1759 9.5496 27.1071 9.17851 26.9829C9.09257 27.447 9.2832 27.9392 9.45898 28.372C9.76679 29.136 10.2668 29.8259 10.8129 30.4423C11.0926 30.7587 11.5215 30.9782 11.8457 30.9899C14.5668 31.0845 17.2824 31.1321 20.0012 31.1321C22.7199 31.1321 25.4355 31.0845 28.1551 30.9899C28.4809 30.979 28.9082 30.7595 29.1887 30.4423C29.734 29.8259 30.2348 29.1368 30.5426 28.372C30.7191 27.9399 30.9074 27.4485 30.8223 26.9829Z" fill="#616484"/>
<path d="M30.8227 26.9834C30.4508 27.1076 30.0602 27.1764 29.6516 27.1764H20V31.1318H20.0008C22.7195 31.1318 25.4352 31.0842 28.1547 30.9896C28.4805 30.9787 28.9078 30.7592 29.1891 30.442C29.7336 29.8264 30.2352 29.1365 30.543 28.3725C30.7188 27.9396 30.907 27.4482 30.8227 26.9834Z" fill="#424566"/>
<path d="M11.4957 27.1768V30.9127C11.3551 30.8604 11.2121 30.7822 11.0801 30.6854V27.1768H11.4957Z" fill="#72769C"/>
<path d="M13.0797 27.1768V31.0299C12.9414 31.026 12.8023 31.0213 12.6641 31.0174V27.1768H13.0797Z" fill="#72769C"/>
<path d="M14.6637 27.1768V31.0705C14.5254 31.0682 14.3863 31.065 14.248 31.0604V27.1768H14.6637Z" fill="#72769C"/>
<path d="M16.2477 27.1768V31.101C16.1086 31.0994 15.9703 31.0971 15.832 31.0947V27.1768H16.2477Z" fill="#72769C"/>
<path d="M17.8318 27.1768V31.1221C17.6936 31.1205 17.5553 31.1197 17.417 31.1174V27.1768H17.8318Z" fill="#72769C"/>
<path d="M19.4156 27.1768V31.1307C19.2773 31.1314 19.1383 31.1307 19 31.1299V27.1768H19.4156Z" fill="#72769C"/>
<path d="M21.0006 27.1768V31.1299C20.8623 31.1307 20.7232 31.1314 20.585 31.1307V27.1768H21.0006Z" fill="#616484"/>
<path d="M22.5836 27.1768V31.1174C22.4453 31.1197 22.307 31.1205 22.168 31.1221V27.1768H22.5836Z" fill="#616484"/>
<path d="M24.1686 27.1768V31.0947C24.0303 31.0971 23.8912 31.1002 23.7529 31.101V27.1768H24.1686Z" fill="#616484"/>
<path d="M25.7516 27.1768V31.0604C25.6125 31.065 25.4742 31.0682 25.3359 31.0705V27.1768H25.7516Z" fill="#616484"/>
<path d="M27.3365 27.1768V31.0174C27.1982 31.0213 27.0592 31.026 26.9209 31.0299V27.1768H27.3365Z" fill="#616484"/>
<path d="M28.9205 27.1768V30.6854C28.7885 30.783 28.6455 30.8611 28.5049 30.9135V27.1768H28.9205Z" fill="#616484"/>
<path d="M20.0004 30.7977C20.9229 30.7977 21.6707 30.0498 21.6707 29.1273C21.6707 28.2049 20.9229 27.457 20.0004 27.457C19.0779 27.457 18.3301 28.2049 18.3301 29.1273C18.3301 30.0498 19.0779 30.7977 20.0004 30.7977Z" fill="#E6EAFF"/>
<path d="M20 27.4565V30.7979C20.9227 30.7979 21.6711 30.0503 21.6711 29.1276C21.6711 28.205 20.9227 27.4565 20 27.4565Z" fill="#CAD4FF"/>
<path d="M20.0008 30.4215C20.7153 30.4215 21.2945 29.8423 21.2945 29.1277C21.2945 28.4132 20.7153 27.834 20.0008 27.834C19.2863 27.834 18.707 28.4132 18.707 29.1277C18.707 29.8423 19.2863 30.4215 20.0008 30.4215Z" fill="#616484"/>
<path d="M20.001 27.834V30.4215C20.7158 30.4215 21.2947 29.8418 21.2947 29.1277C21.2947 28.4129 20.7158 27.834 20.001 27.834Z" fill="#424566"/>
<path d="M20.0004 27.7295L18.8223 29.8271H21.1777L20.0004 27.7295Z" fill="#E6EAFF"/>
<path d="M20 27.729V29.8274H21.1781L20 27.729Z" fill="#CAD4FF"/>
<path d="M19.4893 29.4367L20.0002 28.5273L20.5104 29.4367H19.4893Z" fill="#616484"/>
<path d="M20 28.5273V29.4367H20.5109L20 28.5273Z" fill="#424566"/>
</g>
<defs>
<clipPath id="clip0_363_789">
<rect width="40" height="40" fill="white"/>
</clipPath>
</defs>
</svg>
