<svg width="40" height="40" viewBox="0 0 40 40" fill="none" xmlns="http://www.w3.org/2000/svg">
<g clip-path="url(#clip0_363_886)">
<path d="M39.1212 10.2327C39.1212 10.414 39.0431 10.5952 38.8884 10.7218L34.4517 14.3265V6.79523C34.4517 6.53195 34.7571 6.38663 34.961 6.55304L38.8884 9.74367C39.0431 9.87023 39.1212 10.0515 39.1212 10.2327Z" fill="#F58A97"/>
<path d="M36.1867 29.3232L28.3406 38.2967C27.5883 39.1576 26.2641 39.2021 25.4555 38.3943L23.4219 36.3615V39.4154C23.4219 39.7381 23.1602 39.9998 22.8375 39.9998H1.66016C1.22891 39.9998 0.878906 39.6498 0.878906 39.2186V29.7998C0.878906 27.6436 2.35 25.7654 4.44375 25.249L9.30938 24.049C10.007 23.8764 10.4977 23.2506 10.4977 22.5318V17.667H17.0586V22.4123C17.0586 23.1873 17.6195 23.8475 18.3844 23.9732L21.5977 24.4998C23.2961 24.7787 24.768 25.8311 25.5805 27.349L27.4719 30.8803C27.5461 31.0186 27.6664 31.1092 27.8008 31.149C27.9977 31.2076 28.2242 31.1561 28.3758 30.9834L32.8008 25.9357L36.1867 29.3232Z" fill="#82AEE3"/>
<path d="M37.6381 23.8751C36.8932 23.2795 35.8971 23.2008 35.0899 23.5993C35.6676 24.0722 35.9663 24.7582 35.9663 25.449C35.9663 26.0061 35.7725 26.5662 35.3756 27.0201L33.6186 29.0303L25.7717 38.0037C25.6586 38.1332 25.5324 38.2439 25.397 38.3363L25.4553 38.3946C26.2638 39.2024 27.5881 39.1579 28.3404 38.2969L36.1873 29.3235L37.9443 27.3133C38.3412 26.8594 38.5349 26.2993 38.5349 25.7422C38.535 25.043 38.2295 24.3485 37.6381 23.8751Z" fill="#528FD8"/>
<path d="M27.8008 31.149C27.532 31.3381 27.2625 31.5256 26.9937 31.7139C26.2016 32.2686 25.1039 32.0061 24.6469 31.1545L23.2367 28.5209C22.4242 27.0029 20.9523 25.9506 19.2539 25.6717L16.0406 25.1451C15.2758 25.0193 14.7148 24.3592 14.7148 23.5842V18.8389L17.0586 17.667V22.4123C17.0586 23.1873 17.6195 23.8475 18.3844 23.9732L21.5977 24.4998C23.2961 24.7787 24.768 25.8311 25.5805 27.349L27.4719 30.8803C27.5461 31.0186 27.6664 31.1092 27.8008 31.149Z" fill="#528FD8"/>
<path d="M18.3837 23.9733L18.9893 24.0726C18.0409 25.9931 16.064 27.3145 13.7779 27.3145C11.5485 27.3145 9.61436 26.0573 8.64014 24.214L9.30896 24.0491C10.0069 23.8769 10.4973 23.2509 10.4973 22.5321V22.4843V17.667H17.0585V22.4126C17.0585 23.1873 17.6194 23.848 18.3837 23.9733Z" fill="#FFCEBF"/>
<path d="M14.7148 23.5845C14.7148 24.3593 15.276 25.02 16.0405 25.1454L18.0213 25.4702C18.4081 25.0562 18.7359 24.5861 18.9894 24.0727L18.3843 23.9735L18.3838 23.9734C17.6196 23.8481 17.0586 23.1874 17.0586 22.4126V17.667L14.7148 18.8389V23.5845Z" fill="#FFB09E"/>
<path d="M20.4647 9.6709V15.5577C20.4647 19.252 17.471 22.2468 13.778 22.2468C10.0851 22.2468 7.09131 19.252 7.09131 15.5577V9.6709L13.778 8.49902L20.4647 9.6709Z" fill="#FFCEBF"/>
<path d="M18.1212 9.67098V15.5578C18.1219 16.2278 18.0251 17.7686 16.9684 19.1657C15.5689 21.0164 13.0564 21.8603 10.4976 21.3874C11.1701 21.754 12.0797 22.1195 13.185 22.2199C13.3904 22.2386 13.5883 22.2468 13.7782 22.2468C17.4712 22.2468 20.4649 19.2521 20.4649 15.5577C20.4649 13.8179 20.4649 11.4106 20.4649 9.6709L18.1212 9.67098Z" fill="#FFB09E"/>
<path d="M38.5352 25.7422C38.5352 26.2992 38.3414 26.8594 37.9445 27.3133L36.1867 29.3234L32.8008 25.9359L34.3531 24.1664C34.5656 23.9234 34.8172 23.7344 35.0898 23.5992C35.8969 23.2008 36.893 23.2797 37.6383 23.875C38.2297 24.3484 38.5352 25.043 38.5352 25.7422Z" fill="#FFCEBF"/>
<path d="M38.5354 25.7422C38.5354 26.2992 38.3416 26.8594 37.9447 27.3133L36.1869 29.3234L34.6807 27.8156C35.8322 26.7133 36.6924 25.0484 35.09 23.5992C35.8971 23.2008 36.8932 23.2797 37.6385 23.875C38.2299 24.3484 38.5354 25.043 38.5354 25.7422Z" fill="#FFB09E"/>
<path d="M6.27949 14.7175H7.09121V11.5979H6.27949C5.41801 11.5979 4.71973 12.2963 4.71973 13.1577C4.71965 14.0192 5.41801 14.7175 6.27949 14.7175Z" fill="#FFB09E"/>
<path d="M21.2766 14.7175H20.4648V11.5979H21.2766C22.138 11.5979 22.8363 12.2963 22.8363 13.1577C22.8364 14.0192 22.138 14.7175 21.2766 14.7175Z" fill="#FFCEBF"/>
<path d="M21.1829 10.262L13.7777 9.06875L6.37256 10.262V4.49539C6.37256 2.33625 8.12287 0.585938 10.282 0.585938H17.2735C19.4326 0.585938 21.183 2.33625 21.183 4.49539V10.262H21.1829Z" fill="#F58A97"/>
<path d="M17.2734 0.585938H14.9297C17.0888 0.585938 18.8391 2.33625 18.8391 4.49539V9.88437L21.1829 10.262V4.49539C21.1828 2.33625 19.4325 0.585938 17.2734 0.585938Z" fill="#F07281"/>
<path d="M22.3222 11.0805C22.3183 11.0884 22.3144 11.0962 22.3105 11.1032C21.9972 11.6954 21.2801 11.936 20.6676 11.6649C20.1465 11.4337 19.616 11.2305 19.0793 11.0548C15.0996 9.74852 10.7527 9.95242 6.88787 11.6649C6.27616 11.936 5.55897 11.6954 5.24569 11.1032C5.24178 11.0962 5.23787 11.0884 5.23319 11.0805C4.89022 10.4321 5.16834 9.62664 5.83944 9.32899C10.1894 7.39852 15.0715 7.12977 19.5691 8.52274C20.2965 8.74852 21.0137 9.01727 21.7168 9.32899C22.3879 9.62664 22.666 10.4321 22.3222 11.0805Z" fill="#82AEE3"/>
<path d="M22.3221 11.0805C22.004 11.6805 21.2865 11.9397 20.6674 11.6649C20.1463 11.4336 19.6158 11.2305 19.0791 11.0547C19.34 10.9165 19.6908 10.661 19.8643 10.229C20.0775 9.6977 19.9627 9.04927 19.5689 8.52271C20.2963 8.74849 21.0135 9.01724 21.7166 9.32896C22.3877 9.62661 22.6658 10.4321 22.3221 11.0805Z" fill="#528FD8"/>
<path d="M39.121 10.2328C39.121 10.4141 39.0429 10.5953 38.8882 10.7219L36.396 12.7469V7.71875L38.8882 9.74375C39.0429 9.87031 39.121 10.0516 39.121 10.2328Z" fill="#F07281"/>
<path d="M31.1419 35.0931C30.8983 34.8801 30.5282 34.905 30.3151 35.1485L27.8994 37.9113C27.6435 38.2042 27.2884 38.3727 26.8995 38.3859C26.5095 38.3998 26.1448 38.2549 25.8697 37.9802L24.0079 36.1191V34.8884C24.0079 34.5648 23.7456 34.3025 23.422 34.3025C23.0983 34.3025 22.836 34.5648 22.836 34.8884V36.3588V36.3648V39.4141C22.836 39.7377 23.0983 40 23.422 40C23.7456 40 24.0079 39.7377 24.0079 39.4141V37.7761L25.0413 38.8091C25.5209 39.2881 26.177 39.5585 26.8533 39.5585C27.5881 39.5585 28.2984 39.2361 28.7817 38.6826L31.1973 35.9199C31.4104 35.6763 31.3855 35.3061 31.1419 35.0931ZM6.80766 34.3025C6.48398 34.3025 6.22172 34.5648 6.22172 34.8884V39.4141C6.22172 39.7377 6.48398 40 6.80766 40C7.13133 40 7.39359 39.7377 7.39359 39.4141V34.8884C7.39359 34.5648 7.13125 34.3025 6.80766 34.3025ZM39.2579 9.28922L35.3305 6.09812C35.0588 5.8775 34.6939 5.83375 34.3778 5.98422C34.0618 6.13461 33.8655 6.44547 33.8655 6.79547V14.3268C33.8655 14.3279 33.8657 14.3289 33.8657 14.33V23.8336L27.966 30.5622L26.097 27.0727C25.205 25.4061 23.5585 24.2282 21.6924 23.9218C20.9229 23.7955 19.1267 23.5018 18.4795 23.3953C17.9957 23.3157 17.6445 22.9024 17.6445 22.4125V21.7201C18.101 21.4322 18.5297 21.093 18.9206 20.7017C20.2943 19.3272 21.0508 17.5004 21.0508 15.5578V15.3031H21.2766C22.4359 15.3084 23.4219 14.3226 23.4219 13.1578C23.4219 12.5398 23.1505 11.9655 22.7103 11.5664C23.0509 11.0805 23.1475 10.4421 22.9537 9.88156C22.7863 9.39773 22.422 9.00109 21.9542 8.79344C21.8927 8.76609 21.8306 8.73984 21.7688 8.71313V4.49531C21.7688 2.01664 19.7521 0 17.2734 0H10.282C7.80336 0 5.78672 2.01664 5.78672 4.49531V8.71313C5.725 8.73984 5.66312 8.76609 5.60164 8.79336C5.13375 9.00109 4.76945 9.39773 4.60211 9.88164C4.40578 10.4495 4.50219 11.078 4.84438 11.5671C4.40461 11.9659 4.13359 12.5398 4.13359 13.1578C4.13359 14.3195 5.10828 15.3098 6.27969 15.3031H6.50547V15.5578C6.50547 18.149 7.86703 20.4277 9.9118 21.7167V22.532C9.9118 22.9822 9.60625 23.3721 9.16914 23.4803L4.30352 24.6803C1.94211 25.2627 0.292969 27.368 0.292969 29.8V39.4141C0.292969 39.7377 0.555234 40 0.878906 40C1.20258 40 1.46484 39.7377 1.46484 39.4141V29.8C1.46484 27.9085 2.7475 26.2711 4.58406 25.8181L8.35297 24.8887C9.5182 26.7573 11.5567 27.9003 13.7779 27.9003C16.0826 27.9003 18.163 26.6918 19.3071 24.7184L21.5027 25.0782C23.0114 25.3259 24.3427 26.2783 25.0639 27.6259L26.9551 31.1566C27.1311 31.486 27.4579 31.7081 27.8291 31.7508C28.201 31.7934 28.5699 31.6509 28.8163 31.3698L32.8292 26.7931L35.3781 29.343C35.3805 29.3453 35.3831 29.3473 35.3855 29.3497L32.118 33.0866C31.905 33.3302 31.9299 33.7004 32.1735 33.9134C32.4163 34.1257 32.7866 34.1024 33.0003 33.858L38.3857 27.699C39.488 26.4487 39.2947 24.4491 38.0041 23.4174C37.137 22.7243 36.0016 22.5922 35.0375 22.9808V14.6055L39.2579 11.1764C39.5433 10.9445 39.707 10.6005 39.707 10.2327C39.707 9.865 39.5433 9.52109 39.2579 9.28922ZM22.25 13.1578C22.25 13.6859 21.8051 14.1339 21.2766 14.1313H21.0508V12.3531C21.2732 12.3691 21.4945 12.3447 21.7052 12.2834C22.0326 12.4449 22.25 12.7841 22.25 13.1578ZM6.50547 14.1313H6.27969C5.74812 14.134 5.30547 13.6866 5.30547 13.1578C5.30547 12.7845 5.52234 12.4459 5.84883 12.2846C6.05969 12.3459 6.28445 12.3708 6.50539 12.3545L6.50547 14.1313ZM6.65055 11.1289C6.31484 11.2777 5.92602 11.1321 5.75133 10.8066C5.56727 10.4636 5.72164 10.0223 6.07711 9.86453C9.29727 8.43516 12.8455 7.93078 16.3391 8.40617C16.6592 8.44938 16.9551 8.22523 16.9987 7.90461C17.0423 7.58398 16.8177 7.28867 16.497 7.245C13.2727 6.80625 10.004 7.15406 6.95852 8.24953V4.49531C6.95852 2.66273 8.44937 1.17188 10.282 1.17188H17.2734C19.106 1.17188 20.5969 2.66273 20.5969 4.49531V8.2493C20.1484 8.08805 19.6944 7.9425 19.2378 7.81406C18.9266 7.72656 18.6027 7.90789 18.5151 8.21937C18.4274 8.53086 18.6089 8.85445 18.9204 8.94211C19.7908 9.18703 20.6515 9.49734 21.4787 9.86445C21.8312 10.0209 21.9865 10.4626 21.8057 10.8041C21.6341 11.1282 21.2491 11.2812 20.9052 11.1288C16.5327 9.19258 11.0813 9.16453 6.65055 11.1289ZM7.67734 15.5578V11.9691C11.5869 10.4055 15.9697 10.4056 19.879 11.9694V15.5578C19.879 17.1875 19.2443 18.7202 18.0919 19.8733C16.9488 21.0171 15.4089 21.6609 13.7782 21.6609C10.4141 21.6609 7.67734 18.923 7.67734 15.5578ZM13.7779 26.7284C12.0934 26.7284 10.5376 25.9229 9.56164 24.5854C10.517 24.2887 11.1795 23.3331 11.0836 22.3149C11.9173 22.6488 12.8266 22.8328 13.7781 22.8328C14.7163 22.8328 15.6266 22.6548 16.4726 22.3174C16.4126 23.3269 17.1081 24.2386 18.0575 24.5001C17.0887 25.8911 15.511 26.7284 13.7779 26.7284ZM37.2721 24.3324C38.0573 24.9601 38.1732 26.1694 37.5034 26.9276L36.1584 28.4658L33.6036 25.9101L34.7938 24.5527C35.4298 23.8266 36.5187 23.7302 37.2721 24.3324ZM38.5189 10.2669L35.0375 13.0955L35.0373 7.36992L38.5188 10.1988C38.5366 10.2098 38.537 10.2555 38.5189 10.2669ZM17.0041 15.114C17.3277 15.114 17.59 14.8516 17.59 14.528V13.2371C17.59 12.9135 17.3277 12.6512 17.0041 12.6512C16.6804 12.6512 16.4181 12.9135 16.4181 13.2371V14.528C16.4181 14.8517 16.6805 15.114 17.0041 15.114ZM10.5517 12.6513C10.228 12.6513 9.96578 12.9136 9.96578 13.2372V14.5281C9.96578 14.8517 10.228 15.1141 10.5517 15.1141C10.8754 15.1141 11.1377 14.8517 11.1377 14.5281V13.2372C11.1377 12.9135 10.8753 12.6513 10.5517 12.6513ZM15.582 18.0279C15.4264 17.7443 15.0704 17.6404 14.7865 17.796C14.5665 17.9167 14.208 18.0587 13.7559 18.0548C13.322 18.0503 12.9798 17.9116 12.7693 17.796C12.4853 17.6403 12.1294 17.7441 11.9737 18.0278C11.818 18.3116 11.9218 18.6677 12.2055 18.8234C12.5336 19.0035 13.0668 19.2196 13.7437 19.2267C14.4275 19.2338 15.0121 19.0089 15.3502 18.8235C15.6339 18.6678 15.7377 18.3116 15.582 18.0279Z" fill="black"/>
</g>
<defs>
<clipPath id="clip0_363_886">
<rect width="40" height="40" fill="white"/>
</clipPath>
</defs>
</svg>
