<svg width="40" height="40" viewBox="0 0 40 40" fill="none" xmlns="http://www.w3.org/2000/svg">
<path d="M24.4 17.0688C23.9313 17.2313 23.75 17.4501 23.75 17.5001C23.75 17.6251 24.35 18.1251 25.625 18.1251C25.5393 18.1246 25.4547 18.1066 25.3762 18.0722C25.2978 18.0378 25.2272 17.9877 25.1688 17.9251C25.0625 17.8126 24.775 17.5001 24.4 17.0688Z" fill="url(#paint0_linear_363_928)"/>
<path d="M11.875 25C12.9105 25 13.75 24.1605 13.75 23.125C13.75 22.0895 12.9105 21.25 11.875 21.25C10.8395 21.25 10 22.0895 10 23.125C10 24.1605 10.8395 25 11.875 25Z" fill="url(#paint1_linear_363_928)"/>
<path d="M4.375 33.75V35.3125C4.375 35.8927 4.60547 36.4491 5.0157 36.8593C5.42594 37.2695 5.98234 37.5 6.5625 37.5H27.6625C27.1516 36.8857 26.8729 36.1114 26.875 35.3125V33.75H4.375Z" fill="url(#paint2_linear_363_928)"/>
<path d="M26.85 17.0688C26.475 17.5001 26.1875 17.8126 26.0812 17.9251C26.0228 17.9877 25.9522 18.0378 25.8738 18.0722C25.7953 18.1066 25.7107 18.1246 25.625 18.1251C26.9 18.1251 27.5 17.6251 27.5 17.5001C27.5 17.4501 27.3187 17.2313 26.85 17.0688Z" fill="url(#paint3_linear_363_928)"/>
<path d="M35.9375 2.5C35.3573 2.5 34.8009 2.73047 34.3907 3.1407C33.9805 3.55094 33.75 4.10734 33.75 4.6875V6.875H38.125V4.6875C38.125 4.10734 37.8945 3.55094 37.4843 3.1407C37.0741 2.73047 36.5177 2.5 35.9375 2.5Z" fill="url(#paint4_linear_363_928)"/>
<path d="M32.5 35.3125V4.6875C32.4979 3.88855 32.7766 3.11427 33.2875 2.5H9.6875C9.10734 2.5 8.55094 2.73047 8.1407 3.1407C7.73047 3.55094 7.5 4.10734 7.5 4.6875V32.5H27.5C27.6658 32.5 27.8247 32.5658 27.9419 32.6831C28.0592 32.8003 28.125 32.9592 28.125 33.125V35.3125C28.125 35.8927 28.3555 36.4491 28.7657 36.8593C29.1759 37.2695 29.7323 37.5 30.3125 37.5C30.8927 37.5 31.4491 37.2695 31.8593 36.8593C32.2695 36.4491 32.5 35.8927 32.5 35.3125ZM8.75 23.125C8.75012 22.5337 8.91798 21.9546 9.23408 21.455C9.55019 20.9553 10.0016 20.5555 10.5358 20.3021C11.07 20.0488 11.6652 19.9521 12.2521 20.0235C12.8391 20.0948 13.3937 20.3312 13.8517 20.7052C14.3096 21.0792 14.6521 21.5755 14.8393 22.1363C15.0265 22.6972 15.0507 23.2996 14.9091 23.8737C14.7676 24.4478 14.4661 24.9699 14.0397 25.3795C13.6132 25.7891 13.0793 26.0692 12.5 26.1875V28.75H11.25V26.1875C10.5446 26.0424 9.91084 25.6586 9.45545 25.1008C9.00006 24.5429 8.75091 23.8451 8.75 23.125ZM25 31.25H11.875V30H25C25.4973 30 25.9742 29.8025 26.3258 29.4508C26.6775 29.0992 26.875 28.6223 26.875 28.125C26.875 27.6277 26.6775 27.1508 26.3258 26.7992C25.9742 26.4475 25.4973 26.25 25 26.25H20C19.1712 26.25 18.3763 25.9208 17.7903 25.3347C17.2042 24.7487 16.875 23.9538 16.875 23.125C16.875 22.2962 17.2042 21.5013 17.7903 20.9153C18.3763 20.3292 19.1712 20 20 20H25.625V21.25H20C19.5027 21.25 19.0258 21.4475 18.6742 21.7992C18.3225 22.1508 18.125 22.6277 18.125 23.125C18.125 23.6223 18.3225 24.0992 18.6742 24.4508C19.0258 24.8025 19.5027 25 20 25H25C25.8288 25 26.6237 25.3292 27.2097 25.9153C27.7958 26.5013 28.125 27.2962 28.125 28.125C28.125 28.9538 27.7958 29.7487 27.2097 30.3347C26.6237 30.9208 25.8288 31.25 25 31.25ZM28.75 17.5C28.75 18.5688 27.4062 19.375 25.625 19.375C23.8438 19.375 22.5 18.5688 22.5 17.5C22.5248 17.1857 22.6376 16.8848 22.8255 16.6316C23.0134 16.3785 23.2688 16.1834 23.5625 16.0687C22.0375 14.1875 20 11.3125 20 9.375C20 7.88316 20.5926 6.45242 21.6475 5.39752C22.7024 4.34263 24.1332 3.75 25.625 3.75C27.1168 3.75 28.5476 4.34263 29.6025 5.39752C30.6574 6.45242 31.25 7.88316 31.25 9.375C31.25 11.3125 29.2125 14.1875 27.6875 16.0687C27.9812 16.1834 28.2366 16.3785 28.4245 16.6316C28.6124 16.8848 28.7252 17.1857 28.75 17.5Z" fill="url(#paint5_linear_363_928)"/>
<path d="M25.625 5C24.4651 5.00132 23.3531 5.46268 22.5329 6.28287C21.7127 7.10305 21.2513 8.21508 21.25 9.375C21.25 11.2312 24.0812 14.8188 25.625 16.5688C27.1687 14.8188 30 11.2312 30 9.375C29.9987 8.21508 29.5373 7.10305 28.7171 6.28287C27.8969 5.46268 26.7849 5.00132 25.625 5ZM25.625 11.875C25.1305 11.875 24.6472 11.7284 24.2361 11.4537C23.825 11.179 23.5045 10.7885 23.3153 10.3317C23.1261 9.87489 23.0766 9.37223 23.173 8.88727C23.2695 8.40232 23.5076 7.95686 23.8572 7.60723C24.2069 7.2576 24.6523 7.0195 25.1373 6.92304C25.6222 6.82657 26.1249 6.87608 26.5817 7.0653C27.0385 7.25452 27.429 7.57495 27.7037 7.98607C27.9784 8.3972 28.125 8.88055 28.125 9.375C28.125 10.038 27.8616 10.6739 27.3928 11.1428C26.9239 11.6116 26.288 11.875 25.625 11.875Z" fill="url(#paint6_linear_363_928)"/>
<path d="M25.625 10.625C26.3154 10.625 26.875 10.0654 26.875 9.375C26.875 8.68464 26.3154 8.125 25.625 8.125C24.9346 8.125 24.375 8.68464 24.375 9.375C24.375 10.0654 24.9346 10.625 25.625 10.625Z" fill="url(#paint7_linear_363_928)"/>
<defs>
<linearGradient id="paint0_linear_363_928" x1="0.431251" y1="39.5914" x2="37.1294" y2="6.60948" gradientUnits="userSpaceOnUse">
<stop offset="0.133" stop-color="#A617FF"/>
<stop offset="0.477" stop-color="#6359E3"/>
<stop offset="1" stop-color="#5BCBFA"/>
</linearGradient>
<linearGradient id="paint1_linear_363_928" x1="-2.64187" y1="36.1719" x2="34.0562" y2="3.19" gradientUnits="userSpaceOnUse">
<stop offset="0.133" stop-color="#A617FF"/>
<stop offset="0.477" stop-color="#6359E3"/>
<stop offset="1" stop-color="#5BCBFA"/>
</linearGradient>
<linearGradient id="paint2_linear_363_928" x1="5.42375" y1="45.1469" x2="42.1225" y2="12.165" gradientUnits="userSpaceOnUse">
<stop offset="0.133" stop-color="#A617FF"/>
<stop offset="0.477" stop-color="#6359E3"/>
<stop offset="1" stop-color="#5BCBFA"/>
</linearGradient>
<linearGradient id="paint3_linear_363_928" x1="1.29125" y1="40.5489" x2="37.99" y2="7.56698" gradientUnits="userSpaceOnUse">
<stop offset="0.133" stop-color="#A617FF"/>
<stop offset="0.477" stop-color="#6359E3"/>
<stop offset="1" stop-color="#5BCBFA"/>
</linearGradient>
<linearGradient id="paint4_linear_363_928" x1="-0.755626" y1="38.2713" x2="35.9431" y2="5.28938" gradientUnits="userSpaceOnUse">
<stop offset="0.133" stop-color="#A617FF"/>
<stop offset="0.477" stop-color="#6359E3"/>
<stop offset="1" stop-color="#5BCBFA"/>
</linearGradient>
<linearGradient id="paint5_linear_363_928" x1="-0.565625" y1="38.4831" x2="36.1331" y2="5.50063" gradientUnits="userSpaceOnUse">
<stop offset="0.133" stop-color="#A617FF"/>
<stop offset="0.477" stop-color="#6359E3"/>
<stop offset="1" stop-color="#5BCBFA"/>
</linearGradient>
<linearGradient id="paint6_linear_363_928" x1="-3.0075" y1="35.765" x2="33.6906" y2="2.78313" gradientUnits="userSpaceOnUse">
<stop offset="0.133" stop-color="#A617FF"/>
<stop offset="0.477" stop-color="#6359E3"/>
<stop offset="1" stop-color="#5BCBFA"/>
</linearGradient>
<linearGradient id="paint7_linear_363_928" x1="-3.33437" y1="35.4019" x2="33.3644" y2="2.41937" gradientUnits="userSpaceOnUse">
<stop offset="0.133" stop-color="#A617FF"/>
<stop offset="0.477" stop-color="#6359E3"/>
<stop offset="1" stop-color="#5BCBFA"/>
</linearGradient>
</defs>
</svg>
