<svg xmlns="http://www.w3.org/2000/svg" width="22" height="22" viewBox="0 0 22 22" fill="none">
<path d="M18.3613 14.2365C18.2975 14.3004 18.2216 14.3511 18.1382 14.3857C18.0547 14.4203 17.9652 14.4381 17.8749 14.4381C17.7845 14.4381 17.6951 14.4203 17.6116 14.3857C17.5282 14.3511 17.4523 14.3004 17.3885 14.2365L10.9999 7.84701L4.6113 14.2365C4.4823 14.3655 4.30733 14.4379 4.12489 14.4379C3.94246 14.4379 3.76749 14.3655 3.63849 14.2365C3.50948 14.1075 3.43701 13.9325 3.43701 13.7501C3.43701 13.5676 3.50948 13.3926 3.63849 13.2636L10.5135 6.38865C10.5773 6.32472 10.6532 6.27402 10.7366 6.23942C10.8201 6.20482 10.9095 6.18701 10.9999 6.18701C11.0902 6.18701 11.1797 6.20482 11.2632 6.23942C11.3466 6.27402 11.4225 6.32472 11.4863 6.38865L18.3613 13.2636C18.4252 13.3275 18.4759 13.4033 18.5105 13.4868C18.5451 13.5702 18.5629 13.6597 18.5629 13.7501C18.5629 13.8404 18.5451 13.9299 18.5105 14.0133C18.4759 14.0968 18.4252 14.1726 18.3613 14.2365Z" fill="#0C141D"/>
</svg>