<svg xmlns="http://www.w3.org/2000/svg" width="24" height="25" viewBox="0 0 24 25" fill="none">
<path d="M16.5002 15.5C15.9999 15.4999 15.5047 15.6001 15.0438 15.7948C14.5829 15.9895 14.1658 16.2746 13.8171 16.6334L9.49522 13.8556C9.83519 12.9839 9.83519 12.0162 9.49522 11.1444L13.8171 8.36658C14.4663 9.03156 15.3392 9.43181 16.2668 9.48973C17.1943 9.54764 18.1103 9.25909 18.8371 8.68003C19.564 8.10096 20.0499 7.27263 20.2007 6.35563C20.3516 5.43863 20.1565 4.49829 19.6534 3.71692C19.1503 2.93556 18.375 2.36883 17.4778 2.12662C16.5806 1.88441 15.6254 1.98397 14.7975 2.406C13.9695 2.82803 13.3277 3.54246 12.9966 4.41078C12.6655 5.2791 12.6685 6.23945 13.0052 7.10564L8.68335 9.88345C8.16291 9.34915 7.49496 8.98218 6.76489 8.82946C6.03481 8.67674 5.27578 8.74521 4.58481 9.02611C3.89385 9.30701 3.30235 9.78758 2.88592 10.4064C2.4695 11.0252 2.24707 11.7541 2.24707 12.5C2.24707 13.2459 2.4695 13.9748 2.88592 14.5936C3.30235 15.2124 3.89385 15.693 4.58481 15.9739C5.27578 16.2548 6.03481 16.3233 6.76489 16.1706C7.49496 16.0178 8.16291 15.6509 8.68335 15.1166L13.0052 17.8944C12.7157 18.6411 12.6729 19.461 12.883 20.2338C13.0931 21.0067 13.5451 21.692 14.1729 22.1893C14.8006 22.6867 15.5712 22.97 16.3716 22.9978C17.172 23.0255 17.9603 22.7963 18.621 22.3437C19.2818 21.891 19.7802 21.2387 20.0434 20.4823C20.3066 19.7258 20.3206 18.905 20.0836 18.14C19.8465 17.375 19.3707 16.706 18.7259 16.2309C18.0811 15.7558 17.3011 15.4997 16.5002 15.5ZM16.5002 3.50001C16.9452 3.50001 17.3802 3.63197 17.7503 3.87921C18.1203 4.12644 18.4087 4.47784 18.579 4.88897C18.7493 5.30011 18.7938 5.75251 18.707 6.18897C18.6202 6.62542 18.4059 7.02633 18.0912 7.341C17.7765 7.65567 17.3756 7.86996 16.9392 7.95678C16.5027 8.0436 16.0503 7.99904 15.6392 7.82874C15.2281 7.65844 14.8767 7.37006 14.6294 7.00005C14.3822 6.63003 14.2502 6.19502 14.2502 5.75001C14.2502 5.15328 14.4873 4.58098 14.9092 4.15902C15.3312 3.73707 15.9035 3.50001 16.5002 3.50001ZM6.00023 14.75C5.55522 14.75 5.1202 14.6181 4.75019 14.3708C4.38018 14.1236 4.09179 13.7722 3.9215 13.3611C3.7512 12.9499 3.70664 12.4975 3.79346 12.0611C3.88028 11.6246 4.09457 11.2237 4.40924 10.909C4.7239 10.5944 5.12481 10.3801 5.56127 10.2932C5.99773 10.2064 6.45013 10.251 6.86126 10.4213C7.2724 10.5916 7.6238 10.88 7.87103 11.25C8.11827 11.62 8.25023 12.055 8.25023 12.5C8.25023 13.0967 8.01317 13.669 7.59122 14.091C7.16926 14.513 6.59696 14.75 6.00023 14.75ZM16.5002 21.5C16.0552 21.5 15.6202 21.3681 15.2502 21.1208C14.8802 20.8736 14.5918 20.5222 14.4215 20.111C14.2512 19.6999 14.2066 19.2475 14.2935 18.8111C14.3803 18.3746 14.5946 17.9737 14.9092 17.659C15.2239 17.3444 15.6248 17.1301 16.0613 17.0432C16.4977 16.9564 16.9501 17.001 17.3613 17.1713C17.7724 17.3416 18.1238 17.63 18.371 18C18.6183 18.37 18.7502 18.805 18.7502 19.25C18.7502 19.8467 18.5132 20.419 18.0912 20.841C17.6693 21.263 17.097 21.5 16.5002 21.5Z" fill="#0C141D"/>
</svg>